<svg width="1024" height="1024" viewBox="0 0 1024 1024" xmlns="http://www.w3.org/2000/svg">
  <!-- Black background -->
  <rect width="1024" height="1024" fill="#000000"/>
  
  <!-- Human silhouette outline -->
  <path d="
    M 512 76
    C 532 76 552 82 568 94
    C 584 106 596 124 600 144
    C 604 164 600 185 590 202
    C 580 219 564 232 545 238
    C 526 244 505 243 487 236
    C 469 229 454 216 444 199
    C 434 182 430 162 432 142
    C 434 122 442 103 455 88
    C 468 73 486 63 506 60
    C 508 59 510 76 512 76
    
    M 545 248
    L 560 258
    L 575 280
    L 585 310
    L 590 345
    L 592 385
    L 592 430
    L 590 475
    L 586 515
    L 580 550
    L 572 580
    L 562 605
    L 550 625
    
    L 595 640
    L 630 665
    L 655 695
    L 670 730
    L 675 770
    L 675 815
    L 672 860
    L 665 900
    L 655 935
    L 642 965
    L 625 988
    
    L 610 988
    L 605 960
    L 602 925
    L 600 885
    L 598 845
    L 596 805
    L 594 765
    L 592 725
    L 590 685
    L 587 650
    
    L 575 655
    L 560 660
    L 545 663
    L 530 664
    L 512 664
    L 494 664
    L 479 663
    L 464 660
    L 449 655
    L 437 650
    
    L 434 685
    L 432 725
    L 430 765
    L 428 805
    L 426 845
    L 424 885
    L 422 925
    L 419 960
    L 414 988
    
    L 399 988
    L 382 965
    L 369 935
    L 359 900
    L 352 860
    L 349 815
    L 349 770
    L 354 730
    L 369 695
    L 394 665
    L 429 640
    
    L 474 625
    L 462 605
    L 452 580
    L 444 550
    L 438 515
    L 434 475
    L 432 430
    L 432 385
    L 434 345
    L 439 310
    L 449 280
    L 464 258
    L 479 248
  " 
  fill="#4A4A4A" 
  stroke="#FFFFFF" 
  stroke-width="12" 
  stroke-linejoin="round" 
  stroke-linecap="round"/>
</svg>